<svg viewBox="0 0 117 25" xmlns="http://www.w3.org/2000/svg" xmlns:xlink="http://www.w3.org/1999/xlink">

  <defs>
    <g id="front_cart">
      <path d="M -2.6 -3.6 Q -3 -3.6 -3 -3.28 Q -3 -2.24 -3 -1.52 Q -3 -1.2 -2.6 -1.2 Q 0 -1.2 2.6 -1.2 Q 3 -1.2 3 -1.52 Q 3 -3.6 1 -3.6 Z" fill="#023d88" stroke-linecap="round" />
      </g>

    <g id="normal_cart">
      <path d="M -2.08 -3.6 Q -2.4 -3.6 -2.4 -3.28 Q -2.4 -2.24 -2.4 -1.52 Q -2.4 -1.2 -2.08 -1.2 Q 0 -1.2 2.08 -1.2 Q 2.4 -1.2 2.4 -1.6 L 2.4 -3.2 Q 2.4 -3.6 2.08 -3.6 Z" fill="#023d88" stroke-linecap="round" />
    </g>

    <g id="back_cart">
      <path d="M -0.5 -3.6 Q -2.4 -3.6 -2.4 -1.5 Q -2.4 -2.24 -2.4 -1.52 Q -2.4 -1.2 -2.08 -1.2 Q 0 -1.2 2.08 -1.2 Q 2.4 -1.2 2.4 -1.6 L 2.4 -3.2 Q 2.4 -3.6 2.08 -3.6 Z" fill="#023d88" stroke-linecap="round" />
    </g>
  </defs>

  <rect x="0" y="3" width="1" height="22" fill="#4794ed"/>
  <rect x="5" y="11" width="1" height="14" fill="#4794ed"/>
  <rect x="10" y="17" width="1" height="8" fill="#4794ed"/>
  <rect x="15" y="21" width="1" height="4" fill="#4794ed"/>
  <rect x="20" y="23" width="1" height="2" fill="#4794ed"/>
  <rect x="35" y="24" width="1" height="1" fill="#4794ed"/>
  <rect x="40" y="21" width="1" height="4" fill="#4794ed"/>
  <rect x="45" y="18" width="1" height="7" fill="#4794ed"/>
  <rect x="50" y="16" width="1" height="9" fill="#4794ed"/>
  <rect x="55" y="16" width="1" height="9" fill="#4794ed"/>
  <rect x="60" y="16" width="1" height="9" fill="#4794ed"/>
  <rect x="65" y="18" width="1" height="7" fill="#4794ed"/>
  <rect x="70.6" y="16" width="1" height="9" fill="#4794ed"/>
  <rect x="75" y="24" width="1" height="1" fill="#4794ed"/>

  <rect x="87" y="24" width="1" height="1" fill="#4794ed"/>
  <rect x="91.4" y="16" width="1" height="9" fill="#4794ed"/>
  <rect x="96" y="21" width="1" height="4" fill="#4794ed"/>
  <rect x="101" y="20" width="1" height="5" fill="#4794ed"/>
  <rect x="106" y="20" width="1" height="5" fill="#4794ed"/>
  <rect x="111" y="20" width="1" height="5" fill="#4794ed"/>
  <rect x="116" y="21" width="1" height="4" fill="#4794ed"/>


    <use xlink:href="#front_cart" x="0" y="0">
      <animateMotion dur="10s" repeatCount="indefinite" rotate="auto" begin="0s"
          path="M -66 21.75 C -47 20.75 -41 26.75 -29 20.75 C -18 14.75 -6 -8.25 0 1.75 C 5 11.75 14 24.75 29 24.75 C 42 24.75 42 15.75 55 15.75 C 69 15.75 69 24.75 82 24.75 C 91 24.75 92 16.75 92 14.75 A 1 1 0 0 0 71 14.75 C 71 16.75 72 24.75 82 24.75 C 86 24.75 92 22.75 95 21.75 C 105 17.75 115 19.75 120 22.75 C 128 27.75 131 23.75 143 29.75 L 200 30" />
    </use>
    <use xlink:href="#normal_cart" x="0" y="0">
      <animateMotion dur="10s" repeatCount="indefinite" rotate="auto" begin="0.03s"
          path="M -66 21.75 C -47 20.75 -41 26.75 -29 20.75 C -18 14.75 -6 -8.25 0 1.75 C 5 11.75 14 24.75 29 24.75 C 42 24.75 42 15.75 55 15.75 C 69 15.75 69 24.75 82 24.75 C 91 24.75 92 16.75 92 14.75 A 1 1 0 0 0 71 14.75 C 71 16.75 72 24.75 82 24.75 C 86 24.75 92 22.75 95 21.75 C 105 17.75 115 19.75 120 22.75 C 128 27.75 131 23.75 143 29.75 L 200 30" />
    </use>
    <use xlink:href="#normal_cart" x="0" y="0">
      <animateMotion dur="10s" repeatCount="indefinite" rotate="auto" begin="0.06"
          path="M -66 21.75 C -47 20.75 -41 26.75 -29 20.75 C -18 14.75 -6 -8.25 0 1.75 C 5 11.75 14 24.75 29 24.75 C 42 24.75 42 15.75 55 15.75 C 69 15.75 69 24.75 82 24.75 C 91 24.75 92 16.75 92 14.75 A 1 1 0 0 0 71 14.75 C 71 16.75 72 24.75 82 24.75 C 86 24.75 92 22.75 95 21.75 C 105 17.75 115 19.75 120 22.75 C 128 27.75 131 23.75 143 29.75 L 200 30" />
    </use>
    <use xlink:href="#normal_cart" x="0" y="0">
      <animateMotion dur="10s" repeatCount="indefinite" rotate="auto" begin="0.09s"
          path="M -66 21.75 C -47 20.75 -41 26.75 -29 20.75 C -18 14.75 -6 -8.25 0 1.75 C 5 11.75 14 24.75 29 24.75 C 42 24.75 42 15.75 55 15.75 C 69 15.75 69 24.75 82 24.75 C 91 24.75 92 16.75 92 14.75 A 1 1 0 0 0 71 14.75 C 71 16.75 72 24.75 82 24.75 C 86 24.75 92 22.75 95 21.75 C 105 17.75 115 19.75 120 22.75 C 128 27.75 131 23.75 143 29.75 L 200 30" />
    </use>
    <use xlink:href="#normal_cart" x="0" y="0">
      <animateMotion dur="10s" repeatCount="indefinite" rotate="auto" begin="0.10s"
          path="M -66 21.75 C -47 20.75 -41 26.75 -29 20.75 C -18 14.75 -6 -8.25 0 1.75 C 5 11.75 14 24.75 29 24.75 C 42 24.75 42 15.75 55 15.75 C 69 15.75 69 24.75 82 24.75 C 91 24.75 92 16.75 92 14.75 A 1 1 0 0 0 71 14.75 C 71 16.75 72 24.75 82 24.75 C 86 24.75 92 22.75 95 21.75 C 105 17.75 115 19.75 120 22.75 C 128 27.75 131 23.75 143 29.75 L 200 30" />
    </use>
    <use xlink:href="#normal_cart" x="0" y="0">
      <animateMotion dur="10s" repeatCount="indefinite" rotate="auto" begin="0.15s"
          path="M -66 21.75 C -47 20.75 -41 26.75 -29 20.75 C -18 14.75 -6 -8.25 0 1.75 C 5 11.75 14 24.75 29 24.75 C 42 24.75 42 15.75 55 15.75 C 69 15.75 69 24.75 82 24.75 C 91 24.75 92 16.75 92 14.75 A 1 1 0 0 0 71 14.75 C 71 16.75 72 24.75 82 24.75 C 86 24.75 92 22.75 95 21.75 C 105 17.75 115 19.75 120 22.75 C 128 27.75 131 23.75 143 29.75 L 200 30" />
    </use>
    <use xlink:href="#normal_cart" x="0" y="0">
      <animateMotion dur="10s" repeatCount="indefinite" rotate="auto" begin="0.18s"
          path="M -66 21.75 C -47 20.75 -41 26.75 -29 20.75 C -18 14.75 -6 -8.25 0 1.75 C 5 11.75 14 24.75 29 24.75 C 42 24.75 42 15.75 55 15.75 C 69 15.75 69 24.75 82 24.75 C 91 24.75 92 16.75 92 14.75 A 1 1 0 0 0 71 14.75 C 71 16.75 72 24.75 82 24.75 C 86 24.75 92 22.75 95 21.75 C 105 17.75 115 19.75 120 22.75 C 128 27.75 131 23.75 143 29.75 L 200 30" />
    </use>
    <use xlink:href="#back_cart" x="0" y="0">
      <animateMotion dur="10s" repeatCount="indefinite" rotate="auto" begin="0.21s"
          path="M -66 21.75 C -47 20.75 -41 26.75 -29 20.75 C -18 14.75 -6 -8.25 0 1.75 C 5 11.75 14 24.75 29 24.75 C 42 24.75 42 15.75 55 15.75 C 69 15.75 69 24.75 82 24.75 C 91 24.75 92 16.75 92 14.75 A 1 1 0 0 0 71 14.75 C 71 16.75 72 24.75 82 24.75 C 86 24.75 92 22.75 95 21.75 C 105 17.75 115 19.75 120 22.75 C 128 27.75 131 23.75 143 29.75 L 200 30" />
    </use>

 <path d="M -66 21.75 C -47 20.75 -41 26.75 -29 20.75 C -18 14.75 -6 -8.25 0 1.75 C 5 11.75 14 24.75 29 24.75 C 42 24.75 42 15.75 55 15.75 C 69 15.75 69 24.75 82 24.75 C 91 24.75 92 16.75 92 14.75 A 1 1 0 0 0 71 14.75 C 71 16.75 72 24.75 82 24.75 C 86 24.75 92 22.75 95 21.75 C 105 17.75 115 19.75 120 22.75 C 128 27.75 131 23.75 143 29.75 L 200 30"
  fill="none" stroke="#4794ed" stroke-width="1"/>

</svg>
